<svg xmlns="http://www.w3.org/2000/svg" version="1.0" viewBox="0 0 100 125" preserveAspectRatio="xMidYMid meet" x="0px" y="0px"><metadata>
Created by potrace 1.15, written by Peter Selinger 2001-2017
</metadata><g transform="translate(0.000000,100.000000) scale(0.100000,-0.100000)" fill="yellow" stroke="none"><path fill="yellow" d="M210 585 l0 -175 45 0 45 0 0 175 0 175 -45 0 -45 0 0 -175z"/><path d="M380 586 l0 -173 32 -9 c29 -8 41 -25 98 -129 56 -103 69 -120 92 -123 41 -5 53 27 34 86 -30 92 -35 129 -19 151 12 18 25 21 97 21 86 0 106 8 106 44 0 32 -80 269 -98 289 -13 15 -35 17 -179 17 l-163 0 0 -174z"/></g><text x="0" y="115" fill="#000000" font-size="5px" font-weight="bold" font-family="'Helvetica Neue', Helvetica, Arial-Unicode, Arial, Sans-serif">Created by Khaikal Mikhnaf</text><text x="0" y="120" fill="#000000" font-size="5px" font-weight="bold" font-family="'Helvetica Neue', Helvetica, Arial-Unicode, Arial, Sans-serif">from the Noun Project</text></svg>