<svg xmlns="http://www.w3.org/2000/svg" version="1.0" viewBox="0 0 100 125" preserveAspectRatio="xMidYMid meet" x="0px" y="0px"><g transform="translate(0.000000,100.000000) scale(0.100000,-0.100000)" fill="yellow" stroke="none"><path fill="yellow" d="M518 853 c-9 -10 -39 -64 -68 -121 -49 -97 -86 -142 -116 -142 -11 0 -14 -36 -14 -190 l0 -190 168 0 c119 0 173 4 184 13 9 6 40 81 68 165 48 145 50 155 35 178 -14 22 -21 24 -105 24 -132 0 -135 5 -88 168 20 70 20 73 3 92 -22 25 -47 26 -67 3z"/><path d="M130 400 l0 -191 48 3 47 3 0 185 0 185 -47 3 -48 3 0 -191z"/></g></svg>